<svg xmlns="http://www.w3.org/2000/svg" viewBox="0 0 64 64">
  <rect width="64" height="64" rx="8" fill="#1A5EA8"/>
  <!-- Outer brackets -->
  <path d="M14 12 H24 V18 H20 V46 H24 V52 H14 Z" fill="#FFFFFF"/>
  <path d="M40 12 H50 V52 H40 V46 H44 V18 H40 Z" fill="#FFFFFF"/>
  <!-- Gold accent on lower bracket portions -->
  <path d="M14 38 H20 V46 H24 V52 H14 Z" fill="#C49A5A"/>
  <path d="M40 46 H44 V38 H50 V52 H40 Z" fill="#C49A5A"/>
  <!-- R letterform -->
  <path d="M26 20 H36 Q42 20 42 27 Q42 32 38 33.5 L43 44 H37 L32.5 34 H31 V44 H26 Z M31 25 V30 H35 Q37 30 37 27.5 Q37 25 35 25 Z" fill="#FFFFFF"/>
</svg>
